# xmcd CD database file
#
# Track frame offsets:
#	150
#	15343
#	31118
#	46641
#	60449
#	75876
#	85041
#	94418
#	106782
#	117435
#	126645
#
# Disc length: 1835 seconds
#
# Revision: 0
# Processed by: cddbd v1.5.2PL0 Copyright (c) Steve Scherf et al.
# Submitted via: CDex 1.51
#
DISCID=7407290b
DTITLE=Jonny Fritz - Sweet Creep
DYEAR=2016
DGENRE=Country
TTITLE0=Are You Thirsty
TTITLE1=Happy In Hindsight
TTITLE2=I Love Leaving
TTITLE3=Cries After Making Love
TTITLE4=Forever Whatever
TTITLE5=Stone Cold Daddy-O
TTITLE6=Fifteen Passenger Van
TTITLE7=Stadium Inn
TTITLE8=Humidifier
TTITLE9=Chilidog Morning
TTITLE10=Chihuahua Rescue
EXTD=YEAR: 2016
EXTT0=
EXTT1=
EXTT2=
EXTT3=
EXTT4=
EXTT5=
EXTT6=
EXTT7=
EXTT8=
EXTT9=
EXTT10=
PLAYORDER=
